{
  "source": "C:\\Users\\Peter\\Desktop\\stuff\\MIUN\\quantitative_research\\video_compression\\videos\\BVI-HD\\BVI-HD_CDVL_videos\\ORIG\\Music_1920x1080_30fps.mp4",
  "output": "C:\\Users\\Peter\\Desktop\\stuff\\MIUN\\quantitative_research\\video_compression\\compressed_videos\\BVI-HD\\h264\\1\\Music_1920x1080_30fps_h264.mp4",
  "codec": "h264",
  "ok": "Input #0, mov,mp4,m4a,3gp,3g2,mj2, from 'C:\\Users\\Peter\\Desktop\\stuff\\MIUN\\quantitative_research\\video_compression\\videos\\BVI-HD\\BVI-HD_CDVL_videos\\ORIG\\Music_1920x1080_30fps.mp4':\n  Metadata:\n    major_brand     : isom\n    minor_version   : 512\n    compatible_brands: isomiso2avc1mp41\n    encoder         : Lavf54.28.101\n  Duration: 00:00:05.00, start: 0.000000, bitrate: 192710 kb/s\n  Stream #0:0[0x1](und): Video: h264 (High 4:4:4 Predictive) (avc1 / 0x31637661), yuv420p(progressive), 1920x1080, 192707 kb/s, 30 fps, 30 tbr, 30 tbn (default)\n    Metadata:\n      handler_name    : VideoHandler\n      vendor_id       : [0][0][0][0]\n[out#0/mp4 @ 00000277895fdc80] Codec AVOption b:a (set bitrate (in bits/s)) has not been used for any stream. The most likely reason is either wrong type (e.g. a video option with no video streams) or that it is a private option of some decoder which was not actually used for any stream.\nStream mapping:\n  Stream #0:0 -> #0:0 (h264 (native) -> h264 (libx264))\nPress [q] to stop, [?] for help\n[libx264 @ 00000277896700c0] using cpu capabilities: MMX2 SSE2Fast SSSE3 SSE4.2 AVX FMA3 BMI2 AVX2\n[libx264 @ 00000277896700c0] profile High, level 5.0, 4:2:0, 8-bit\n[libx264 @ 00000277896700c0] 264 - core 165 r3222 b35605a - H.264/MPEG-4 AVC codec - Copyleft 2003-2025 - http://www.videolan.org/x264.html - options: cabac=1 ref=5 deblock=1:0:0 analyse=0x3:0x113 me=hex subme=8 psy=1 psy_rd=1.00:0.00 mixed_ref=1 me_range=16 chroma_me=1 trellis=2 8x8dct=1 cqm=0 deadzone=21,11 fast_pskip=1 chroma_qp_offset=-2 threads=18 lookahead_threads=3 sliced_threads=0 nr=0 decimate=1 interlaced=0 bluray_compat=0 constrained_intra=0 bframes=3 b_pyramid=2 b_adapt=1 b_bias=0 direct=3 weightb=1 open_gop=0 weightp=2 keyint=250 keyint_min=25 scenecut=40 intra_refresh=0 rc_lookahead=50 rc=cbr mbtree=1 bitrate=1000 ratetol=1.0 qcomp=0.60 qpmin=0 qpmax=69 qpstep=4 vbv_maxrate=1000 vbv_bufsize=1000 nal_hrd=none filler=0 ip_ratio=1.40 aq=1:1.00\nOutput #0, mp4, to 'C:\\Users\\Peter\\Desktop\\stuff\\MIUN\\quantitative_research\\video_compression\\compressed_videos\\BVI-HD\\h264\\1\\Music_1920x1080_30fps_h264.mp4':\n  Metadata:\n    major_brand     : isom\n    minor_version   : 512\n    compatible_brands: isomiso2avc1mp41\n    encoder         : Lavf62.3.100\n  Stream #0:0(und): Video: h264 (avc1 / 0x31637661), yuv420p(tv, progressive), 1920x1080, q=2-31, 1000 kb/s, 30 fps, 15360 tbn (default)\n    Metadata:\n      encoder         : Lavc62.11.100 libx264\n      handler_name    : VideoHandler\n      vendor_id       : [0][0][0][0]\n    Side data:\n      cpb: bitrate max/min/avg: 1000000/0/1000000 buffer size: 1000000 vbv_delay: N/A\nframe=    0 fps=0.0 q=0.0 size=       0KiB time=N/A bitrate=N/A speed=N/A elapsed=0:00:00.52    \nframe=    0 fps=0.0 q=0.0 size=       0KiB time=N/A bitrate=N/A speed=N/A elapsed=0:00:01.07    \nframe=    0 fps=0.0 q=0.0 size=       0KiB time=N/A bitrate=N/A speed=N/A elapsed=0:00:01.60    \nframe=    9 fps=4.2 q=48.0 size=       0KiB time=00:00:00.20 bitrate=   1.9kbits/s speed=0.093x elapsed=0:00:02.15    \nframe=   17 fps=6.2 q=50.0 size=       0KiB time=00:00:00.50 bitrate=   0.8kbits/s speed=0.183x elapsed=0:00:02.73    \nframe=   34 fps= 10 q=51.0 size=       0KiB time=00:00:01.06 bitrate=   0.4kbits/s speed=0.326x elapsed=0:00:03.26    \nframe=   58 fps= 15 q=44.0 size=       0KiB time=00:00:01.86 bitrate=   0.2kbits/s speed=0.482x elapsed=0:00:03.87    \nframe=   82 fps= 19 q=42.0 size=       0KiB time=00:00:02.66 bitrate=   0.1kbits/s speed=0.603x elapsed=0:00:04.42    \nframe=  129 fps= 26 q=44.0 size=     256KiB time=00:00:04.10 bitrate= 511.6kbits/s speed=0.831x elapsed=0:00:04.93    \n[mp4 @ 0000027789a63bc0] Starting second pass: moving the moov atom to the beginning of the file\n[out#0/mp4 @ 00000277895fdc80] video:508KiB audio:0KiB subtitle:0KiB other streams:0KiB global headers:0KiB muxing overhead: 0.443055%\nframe=  150 fps= 28 q=-1.0 Lsize=     510KiB time=00:00:04.93 bitrate= 846.7kbits/s speed=0.923x elapsed=0:00:05.34    \n[libx264 @ 00000277896700c0] frame I:3     Avg QP:40.62  size:  7859\n[libx264 @ 00000277896700c0] frame P:70    Avg QP:43.07  size:  4832\n[libx264 @ 00000277896700c0] frame B:77    Avg QP:46.11  size:  2041\n[libx264 @ 00000277896700c0] consecutive B-frames: 31.3%  0.0%  2.0% 66.7%\n[libx264 @ 00000277896700c0] mb I  I16..4: 42.3% 57.4%  0.2%\n[libx264 @ 00000277896700c0] mb P  I16..4: 15.9% 23.4%  0.0%  P16..4:  9.6%  0.2%  0.3%  0.0%  0.0%    skip:50.6%\n[libx264 @ 00000277896700c0] mb B  I16..4:  0.3%  0.3%  0.0%  B16..8: 14.9%  0.3%  0.0%  direct: 0.7%  skip:83.5%  L0:44.2% L1:55.3% BI: 0.5%\n[libx264 @ 00000277896700c0] 8x8 transform intra:59.2% inter:95.7%\n[libx264 @ 00000277896700c0] direct mvs  spatial:98.7% temporal:1.3%\n[libx264 @ 00000277896700c0] coded y,uvDC,uvAC intra: 1.3% 28.7% 0.5% inter: 0.3% 3.4% 0.0%\n[libx264 @ 00000277896700c0] i16 v,h,dc,p: 44% 25%  4% 28%\n[libx264 @ 00000277896700c0] i8 v,h,dc,ddl,ddr,vr,hd,vl,hu: 21%  2% 72%  1%  1%  1%  1%  1%  0%\n[libx264 @ 00000277896700c0] i4 v,h,dc,ddl,ddr,vr,hd,vl,hu: 18%  5% 31%  8% 16%  9%  5%  3%  4%\n[libx264 @ 00000277896700c0] i8c dc,h,v,p: 88%  7%  4%  2%\n[libx264 @ 00000277896700c0] Weighted P-Frames: Y:0.0% UV:0.0%\n[libx264 @ 00000277896700c0] ref P L0: 43.9%  4.2% 25.1% 12.2% 12.3%  2.3%\n[libx264 @ 00000277896700c0] ref B L0: 74.2% 14.7%  7.8%  3.3%\n[libx264 @ 00000277896700c0] ref B L1: 92.2%  7.8%\n[libx264 @ 00000277896700c0] kb/s:830.46\n",
  "seconds": 5.609721422195435,
  "probe_out": {}
}